<?xml version="1.0" encoding="utf-8"?>
<!-- Generator: Adobe Illustrator 17.0.0, SVG Export Plug-In . SVG Version: 6.00 Build 0)  -->
<!DOCTYPE svg PUBLIC "-//W3C//DTD SVG 1.0//EN" "http://www.w3.org/TR/2001/REC-SVG-20010904/DTD/svg10.dtd">
<svg version="1.0" id="downWards" xmlns="http://www.w3.org/2000/svg" xmlns:xlink="http://www.w3.org/1999/xlink" x="0px" y="0px"
	 width="100px" height="100px" viewBox="0 0 100 100" enable-background="new 0 0 100 100" xml:space="preserve">
<path fill="none" stroke="#000000" stroke-miterlimit="10" d="M31.087,40.685"/>
<path fill="none" stroke="#000000" stroke-miterlimit="10" d="M69.531,53.541c6.431,6.431,12.745,0.087,12.745,0.087
	s6.302-6.628,0-12.93c-6.302-6.302-12.764,0-12.764,0L50.305,59.904L31.087,40.685c0,0-6.395-6.379-12.774,0s0,12.847,0,12.847
	s6.427,6.398,12.825,0"/>
<path fill="none" stroke="#000000" stroke-miterlimit="10" d="M69.511,40.698"/>
<rect x="17.663" y="16.263" transform="matrix(-0.7071 0.7071 -0.7071 -0.7071 120.3899 47.8868)" fill="none" stroke="#000000" stroke-miterlimit="10" width="65.228" height="65.228"/>
<polyline fill="none" stroke="#000000" stroke-miterlimit="10" points="69.49,63.708 50.284,82.914 31.065,63.695 "/>
<line fill="none" stroke="#000000" stroke-miterlimit="10" x1="50.277" y1="59.668" x2="50.277" y2="82.914"/>
</svg>
