<?xml version="1.0" encoding="utf-8"?>
<!-- Generator: Adobe Illustrator 17.0.0, SVG Export Plug-In . SVG Version: 6.00 Build 0)  -->
<!DOCTYPE svg PUBLIC "-//W3C//DTD SVG 1.0//EN" "http://www.w3.org/TR/2001/REC-SVG-20010904/DTD/svg10.dtd">
<svg version="1.0" id="Layer_1" xmlns="http://www.w3.org/2000/svg" xmlns:xlink="http://www.w3.org/1999/xlink" x="0px" y="0px"
	 width="600px" height="600px" viewBox="0 0 600 600" enable-background="new 0 0 600 600" xml:space="preserve">
<g id="REYENOS">
	<path id="bD" fill="#00A0A4" d="M213.222,252.028l-0.202-0.009c-1.333-0.024-13.39-0.451-25.732-6.746
		c-17.583-8.972-27.27-25.504-27.27-46.539c0-21.085,9.719-37.562,27.38-46.39c12.359-6.178,24.426-6.482,25.766-6.49l0.296,27.801
		h0.1c-0.073,0-7.507,0.235-14.344,3.879c-7.775,4.13-11.397,10.867-11.397,21.2c0,10.38,3.649,17.193,11.488,21.448
		c6.084,3.298,12.627,3.923,14.096,4.028c1.436-0.087,7.848-0.625,13.803-3.845c7.719-4.171,11.321-11.042,11.321-21.632V67.588
		h27.799v131.147c0,21.273-9.649,37.879-27.174,46.759c-12.333,6.254-24.405,6.52-25.749,6.535h-0.181V252.028z"/>
	<path id="rD" fill="#AC0909" d="M248.272,472.851l-0.192-0.005c-1.333-0.027-13.371-0.45-25.684-6.736
		c-17.561-8.96-27.238-25.464-27.238-46.461c0-21.052,9.714-37.497,27.347-46.31c12.332-6.17,24.39-6.469,25.712-6.483l0.294,27.757
		h0.11c-0.081,0-7.498,0.239-14.334,3.874c-7.758,4.131-11.358,10.851-11.358,21.161c0,10.362,3.637,17.167,11.458,21.412
		c6.074,3.299,12.599,3.919,14.07,4.015c1.434-0.077,7.847-0.615,13.783-3.832c7.721-4.161,11.304-11.026,11.304-21.595v-292.06
		h27.752v292.06c0,21.242-9.641,37.816-27.127,46.682c-12.324,6.249-24.37,6.506-25.712,6.52h-0.185V472.851z"/>
	<path id="rP" fill="#AC0909" d="M335.836,472.851h-27.769V309.254c0-21.247,9.64-37.833,27.134-46.71
		c12.335-6.249,24.389-6.512,25.724-6.521h0.193h0.19c1.334,0.033,13.381,0.46,25.706,6.745
		c17.569,8.963,27.236,25.473,27.236,46.485c0,21.061-9.712,37.515-27.347,46.332c-12.343,6.174-24.407,6.478-25.74,6.486
		l-0.285-27.769h-0.109c0.07,0,7.498-0.235,14.333-3.878c7.766-4.127,11.379-10.858,11.379-21.172
		c0-10.628-3.843-17.538-12.095-21.752c-5.928-3.02-12.184-3.607-13.434-3.699c-1.379,0.083-7.832,0.608-13.823,3.841
		c-7.702,4.172-11.294,11.037-11.294,21.61v163.599H335.836z"/>
	<path id="rJ" fill="#AC0909" d="M137.152,472.851c-15.108,0-27.974-4.916-37.217-14.22c-15.21-15.328-15.502-36.73-15.493-39.12
		l27.861,0.194v-0.11c0,0.073,0.109,7.423,3.638,14.173c4.007,7.664,10.734,11.23,21.21,11.23c10.796,0,17.761-3.837,21.925-12.079
		c3.227-6.377,3.583-13.137,3.603-13.574V256.023h103.648l-20,27.849h-55.803v135.744c-0.021,1.337-0.312,13.458-6.582,25.864
		C175.029,463.129,158.406,472.851,137.152,472.851z"/>
	<path id="rM" fill="#AC0909" d="M394.713,472.851c-2.812,0-23.763-0.52-38.909-15.589c-9.407-9.361-14.372-22.404-14.372-37.728
		c0-15.309,4.964-28.354,14.365-37.719c15.19-15.138,36.27-15.643,38.972-15.643c0.018,0,0.035,0,0.053,0
		c2.702,0,23.765,0.501,38.938,15.635c0.163,0.162,0.321,0.318,0.484,0.478c9.43-10.448,22.956-16.067,39.232-16.067
		c21.391,0,38.071,9.745,46.967,27.44c6.074,12.111,6.449,23.96,6.486,25.821c0.011,0.404,0.294,7.544,3.853,14.138
		c4.162,7.728,11.036,11.322,21.595,11.322v27.913c-21.312,0-37.934-9.68-46.84-27.27c-6.157-12.194-6.505-24.117-6.524-25.749
		c-0.008-0.339-0.267-7.589-3.861-14.279c-4.171-7.793-11.052-11.423-21.675-11.423c-10.89,0-17.846,3.796-21.92,11.943
		c-3.24,6.478-3.444,13.352-3.444,13.416h-27.917c0-7.94-2.012-13.799-6.129-17.914c-7.206-7.174-18.985-7.486-19.225-7.486
		c-0.349,0.006-7.535,0.208-14.151,3.731c-7.747,4.117-11.339,11.018-11.339,21.714c0,6.731,1.166,16.302,11.303,21.687
		c6.745,3.584,14.069,3.717,14.144,3.717h-0.111l0.128,27.913C394.787,472.851,394.75,472.851,394.713,472.851z"/>
	<path id="bW" fill="#00A0A4" d="M361.348,145.349c-2.812,0-23.763,0.52-38.909,15.589c-9.408,9.361-14.372,22.404-14.372,37.728
		c0,15.309,4.964,28.354,14.365,37.719c15.19,15.138,36.27,15.643,38.972,15.643c0.018,0,0.035,0,0.053,0
		c2.702,0,23.765-0.501,38.938-15.635c0.163-0.162,0.321-0.318,0.484-0.478c9.43,10.448,22.956,16.067,39.232,16.067
		c21.391,0,38.071-9.745,46.967-27.44c6.074-12.111,6.449-23.96,6.487-25.821c0.011-0.404,0.294-7.544,3.853-14.138
		c4.162-7.728,11.035-11.322,21.595-11.322v-27.913c-21.312,0-37.934,9.68-46.84,27.27c-6.157,12.194-6.505,24.117-6.524,25.749
		c-0.008,0.339-0.267,7.589-3.861,14.279c-4.171,7.793-11.052,11.423-21.675,11.423c-10.89,0-17.846-3.796-21.92-11.943
		c-3.24-6.478-3.444-13.352-3.444-13.416h-27.917c0,7.94-2.012,13.799-6.129,17.914c-7.206,7.174-18.985,7.486-19.225,7.486
		c-0.349-0.006-7.535-0.208-14.151-3.731c-7.747-4.117-11.339-11.018-11.339-21.714c0-6.731,1.166-16.302,11.303-21.687
		c6.745-3.584,14.069-3.717,14.144-3.717h-0.111l0.128-27.913C361.423,145.349,361.385,145.349,361.348,145.349z"/>
</g>
<g id="OUTLINES">
	<g>
		<path id="bD-outline" fill="none" stroke="#FFFFFF" stroke-miterlimit="10" d="M213.222,252.028l-0.202-0.009
			c-1.333-0.024-13.39-0.451-25.732-6.746c-17.583-8.972-27.27-25.504-27.27-46.539c0-21.085,9.719-37.562,27.38-46.39
			c12.359-6.178,24.426-6.482,25.766-6.49l0.296,27.801h0.1c-0.073,0-7.507,0.235-14.344,3.879
			c-7.775,4.13-11.397,10.867-11.397,21.2c0,10.38,3.649,17.193,11.488,21.448c6.084,3.298,12.627,3.923,14.096,4.028
			c1.436-0.087,7.848-0.625,13.803-3.845c7.719-4.171,11.321-11.042,11.321-21.632V67.588h27.799v131.147
			c0,21.273-9.649,37.879-27.174,46.759c-12.333,6.254-24.405,6.52-25.749,6.535h-0.181V252.028z"/>
		<path id="dD-outline" fill="none" stroke="#FFFFFF" stroke-miterlimit="10" d="M248.272,472.851l-0.192-0.005
			c-1.333-0.027-13.371-0.45-25.684-6.736c-17.561-8.96-27.238-25.464-27.238-46.461c0-21.052,9.714-37.497,27.347-46.31
			c12.332-6.17,24.39-6.469,25.712-6.483l0.294,27.757h0.11c-0.081,0-7.498,0.239-14.334,3.874
			c-7.758,4.131-11.358,10.851-11.358,21.161c0,10.362,3.637,17.167,11.458,21.412c6.074,3.299,12.599,3.919,14.07,4.015
			c1.434-0.077,7.847-0.615,13.783-3.832c7.721-4.161,11.304-11.026,11.304-21.595v-292.06h27.752v292.06
			c0,21.242-9.641,37.816-27.127,46.682c-12.324,6.249-24.37,6.506-25.712,6.52h-0.185V472.851z"/>
		<path id="dP-outline" fill="none" stroke="#FFFFFF" stroke-miterlimit="10" d="M335.836,472.851h-27.769V309.254
			c0-21.247,9.64-37.833,27.134-46.71c12.335-6.249,24.389-6.512,25.724-6.521h0.193h0.19c1.334,0.033,13.381,0.46,25.706,6.745
			c17.569,8.963,27.236,25.473,27.236,46.485c0,21.061-9.712,37.515-27.347,46.332c-12.343,6.174-24.407,6.478-25.74,6.486
			l-0.285-27.769h-0.109c0.07,0,7.498-0.235,14.333-3.878c7.766-4.127,11.379-10.858,11.379-21.172
			c0-10.628-3.843-17.538-12.095-21.752c-5.928-3.02-12.184-3.607-13.434-3.699c-1.379,0.083-7.832,0.608-13.823,3.841
			c-7.702,4.172-11.294,11.037-11.294,21.61v163.599H335.836z"/>
		<path id="dJ-outline" fill="none" stroke="#FFFFFF" stroke-miterlimit="10" d="M137.152,472.851
			c-15.108,0-27.974-4.916-37.217-14.22c-15.21-15.328-15.502-36.73-15.493-39.12l27.861,0.194v-0.11
			c0,0.073,0.109,7.423,3.638,14.173c4.007,7.664,10.734,11.23,21.21,11.23c10.796,0,17.761-3.837,21.925-12.079
			c3.227-6.377,3.583-13.137,3.603-13.574V256.023h103.648l-20,27.849h-55.803v135.744c-0.021,1.337-0.312,13.458-6.582,25.864
			C175.029,463.129,158.406,472.851,137.152,472.851z"/>
		<path id="dM-outline" fill="none" stroke="#FFFFFF" stroke-miterlimit="10" d="M394.713,472.851
			c-2.812,0-23.763-0.52-38.909-15.589c-9.407-9.361-14.372-22.404-14.372-37.728c0-15.309,4.964-28.354,14.365-37.719
			c15.19-15.138,36.27-15.643,38.972-15.643c0.018,0,0.035,0,0.053,0c2.702,0,23.765,0.501,38.938,15.635
			c0.163,0.162,0.321,0.318,0.484,0.478c9.43-10.448,22.956-16.067,39.232-16.067c21.391,0,38.071,9.745,46.967,27.44
			c6.074,12.111,6.449,23.96,6.486,25.821c0.011,0.404,0.294,7.544,3.853,14.138c4.162,7.728,11.036,11.322,21.595,11.322v27.913
			c-21.312,0-37.934-9.68-46.84-27.27c-6.157-12.194-6.505-24.117-6.524-25.749c-0.008-0.339-0.267-7.589-3.861-14.279
			c-4.171-7.793-11.052-11.423-21.675-11.423c-10.89,0-17.846,3.796-21.92,11.943c-3.24,6.478-3.444,13.352-3.444,13.416h-27.917
			c0-7.94-2.012-13.799-6.129-17.914c-7.206-7.174-18.985-7.486-19.225-7.486c-0.349,0.006-7.535,0.208-14.151,3.731
			c-7.747,4.117-11.339,11.018-11.339,21.714c0,6.731,1.166,16.302,11.303,21.687c6.745,3.584,14.069,3.717,14.144,3.717h-0.111
			l0.128,27.913C394.787,472.851,394.75,472.851,394.713,472.851z"/>
		<path id="bW-outline" fill="none" stroke="#FFFFFF" stroke-miterlimit="10" d="M361.348,145.349
			c-2.812,0-23.763,0.52-38.909,15.589c-9.408,9.361-14.372,22.404-14.372,37.728c0,15.309,4.964,28.354,14.365,37.719
			c15.19,15.138,36.27,15.643,38.972,15.643c0.018,0,0.035,0,0.053,0c2.702,0,23.765-0.501,38.938-15.635
			c0.163-0.162,0.321-0.318,0.484-0.478c9.43,10.448,22.956,16.067,39.232,16.067c21.391,0,38.071-9.745,46.967-27.44
			c6.074-12.111,6.449-23.96,6.487-25.821c0.011-0.404,0.294-7.544,3.853-14.138c4.162-7.728,11.035-11.322,21.595-11.322v-27.913
			c-21.312,0-37.934,9.68-46.84,27.27c-6.157,12.194-6.505,24.117-6.524,25.749c-0.008,0.339-0.267,7.589-3.861,14.279
			c-4.171,7.793-11.052,11.423-21.675,11.423c-10.89,0-17.846-3.796-21.92-11.943c-3.24-6.478-3.444-13.352-3.444-13.416h-27.917
			c0,7.94-2.012,13.799-6.129,17.914c-7.206,7.174-18.985,7.486-19.225,7.486c-0.349-0.006-7.535-0.208-14.151-3.731
			c-7.747-4.117-11.339-11.018-11.339-21.714c0-6.731,1.166-16.302,11.303-21.687c6.745-3.584,14.069-3.717,14.144-3.717h-0.111
			l0.128-27.913C361.423,145.349,361.385,145.349,361.348,145.349z"/>
	</g>
</g>
</svg>
