<?xml version="1.0" encoding="utf-8"?>
<!-- Generator: Adobe Illustrator 17.0.0, SVG Export Plug-In . SVG Version: 6.00 Build 0)  -->
<!DOCTYPE svg PUBLIC "-//W3C//DTD SVG 1.0//EN" "http://www.w3.org/TR/2001/REC-SVG-20010904/DTD/svg10.dtd">
<svg version="1.0" id="Layer_1" xmlns="http://www.w3.org/2000/svg" xmlns:xlink="http://www.w3.org/1999/xlink" x="0px" y="0px"
	 width="300px" height="203px" viewBox="0 0 300 203" enable-background="new 0 0 300 203" xml:space="preserve">
<g>
	<path fill="#FFFFFF" d="M205.691,75.052c8.244-11.386,3.752-21.026-7.394-27.95c10.843-3.406,26.361,0.66,28.667-16.623
		c1.101-8.252-4.363-14.128-11.993-16.376c-16.722-4.927-28.317,3.02-37.316,16.246c-8.604-13.16-18.346-24.797-36.426-22.663
		c-7.007,0.827-12.555,4.433-14.806,11.547c-2.193,6.932-0.797,13.03,5.52,17.673c-10.419,4.643-15.336,13.075-16.999,23.647
		c-0.405,2.578-0.843,6.365,0.559,7.746c2.475,2.44,3.085-2.58,6.228-2.801c15.657,15.692,33.204,25.708,55.845,12.822
		C187.925,84.906,198.258,85.317,205.691,75.052z M133.416,67.853c0.023,0.021,0.045,0.041,0.066,0.059c0,0,0,0,0,0
		c0.054,0,0.091,0,0.074,0c0.017,0-0.02,0-0.074,0c0.018,0.016,0.022,0.02,0.032,0.029c0.032,0.029,0.037,0.033,0,0
		c-0.01-0.009-0.019-0.017-0.032-0.029c-0.03,0-0.065,0-0.101,0c0-0.03,0-0.059,0-0.089c-2.625-2.208-5.249-4.416-7.744-6.515
		c-1.068-13.052,5.977-21.299,17.713-20.483c-9.026,7.066-9.993,16.857-9.969,26.998C133.392,67.833,133.404,67.843,133.416,67.853z
		 M152.979,78.225c-3.826-1.348-7.372-2.598-10.872-3.831c-1.72-11.924-1.819-22.888,8.035-31.461
		c3.784-3.292,7.059-0.673,10.756-0.076C149.581,56.589,149.581,56.589,152.979,78.225z M182.982,74.622
		c-5.881-3.916-7.148-9.432-4.465-16.046c0.459-1.131-0.066-3.486-0.97-4.165c-1.613-1.212-3.296-0.211-4.197,1.655
		c-2.811,5.825-2.578,11.595,0.706,17.872c-4.122,1.545-7.91,2.964-11.914,4.464c-4.901-11.408-4.657-21.386,4.991-29.942
		c1.53,1.464,3.297,2.715,5.147,0.893c1.94-1.911,0.431-3.624-0.787-5.279c-6.26-8.506-14.796-12.079-25.183-11.779
		c-4.95,0.143-10.603,2.455-13.928-3.397c-2.15-3.784-1.419-7.815,1.316-11.004c4.356-5.079,10.347-5.8,16.318-4.136
		c12.579,3.504,19.58,12.861,24.336,24.381c0.511,1.239,1.853,2.908,2.87,2.951c1.045,0.045,2.681-1.446,3.171-2.632
		c6.016-14.554,19.444-22.894,31.624-19.243c5.413,1.622,9.562,4.99,9.216,11.147c-0.338,6.01-5.186,7.68-10.221,8.683
		c-10.069,2.006-20.853,1.456-29.614,8.145c-1.761,1.344-3.52,3.088-2.009,5.508c1.45,2.323,3.469,1.051,5.337,0.291
		c6.776-2.757,12.691-1.391,16.849,4.604c3.699,5.333,3.018,10.972-1.621,15.447C194.921,77.894,188.859,78.535,182.982,74.622z"/>
	<path fill="#FFFFFF" d="M171.637,106.891c-5.931-13.407-19.03-4.654-28.587-7.846c0,17.458,0,34.07,0,50.799
		c2.532,0,4.986,0,7.394,0c0-7.877,0-15.548,0-25.104c6.632,9.286,12.332,17.265,17.888,25.045c2.972,0,5.768,0,9.094,0
		c-5.965-8.218-11.616-16.003-17.384-23.95C169.491,122.572,175.868,116.455,171.637,106.891z M150.533,122.147
		c0-6.255,0-12.148,0-18.161c5.126-0.492,10.136-1.45,13.427,3.288c2.277,3.279,2.035,7.078-0.155,10.363
		C160.594,122.452,155.613,122.541,150.533,122.147z"/>
	<path fill="#FFFFFF" d="M43.283,134.864C32.302,122.029,21.728,109.67,9.321,95.166c0,20.075,0,36.946,0,53.951
		c1.427,0,3.293,0,5.237,0c0-12.053,0-23.953,0-36.438c11.03,13.02,21.636,25.54,33.857,39.966c0-19.721,0-36.566,0-53.482
		c-1.621,0-3.322,0-5.132,0C43.283,110.896,43.283,122.527,43.283,134.864z"/>
	<path fill="#FFFFFF" d="M89.835,132.321c-0.387,7.924-4.378,13.347-13.356,13.168c-9.044-0.179-12.466-5.833-12.71-13.777
		c-0.333-10.827-0.083-21.671-0.083-32.568c-2.255,0-4.56,0-6.861,0c0,12.014-0.371,23.766,0.121,35.481
		c0.372,8.866,5.496,14.355,14.524,15.384c9.446,1.077,19.203-0.454,21.428-10.761c2.806-12.999,2.751-26.617,3.944-40.118
		c-2.798,0-4.582,0-6.872,0C89.97,110.277,90.372,121.322,89.835,132.321z"/>
	<path fill="#FFFFFF" d="M255.634,98.887c-2.289,0.371-22.464,47.287-22.387,51.195c1.81,0,3.625,0,5.695,0
		c2.165-6.353,4.285-12.573,6.371-18.694c5.32,0,10.197,0,15.266,0c2.301,6.295,4.586,12.547,6.781,18.554c2.87,0,5.416,0,8.176,0
		C268.818,132.708,262.208,115.752,255.634,98.887z M247.264,126.515c1.925-4.944,3.761-9.66,5.809-14.918
		c2.086,5.23,3.97,9.952,5.951,14.918C254.983,126.515,251.36,126.515,247.264,126.515z"/>
	<path fill="#FFFFFF" d="M221.416,121.142c-3.046-1.464-6.164-2.895-8.919-4.815c-3.146-2.192-3.232-5.654-2.243-9.006
		c0.899-3.046,3.142-4.708,6.37-4.952c3.721-0.281,5.782,1.777,7.206,4.911c0.338,0.744,1.133,1.28,2.174,2.403
		c0.923-3.084,1.586-5.298,2.359-7.881c-5.008-4.378-10.661-4.717-16.467-2.73c-5.591,1.913-8.364,6.205-8.815,12.1
		c-0.801,10.473,6.865,13.646,14.422,17.038c3.979,1.786,6.559,4.67,5.916,9.409c-0.565,4.164-2.556,7.36-6.953,8.086
		c-4.693,0.775-8.015-1.483-10.346-5.488c-0.447-0.768-1.328-1.283-2.489-2.36c-0.653,3.269-1.123,5.624-1.626,8.14
		c5.281,4.792,11.437,5.313,17.805,3.222c6.987-2.295,9.922-7.797,10.343-14.855C230.546,127.775,227,123.826,221.416,121.142z"/>
	<path fill="#FFFFFF" d="M102.501,105.842c4.559-0.265,8.951-0.52,13.577-0.789c0,15.182,0,30.093,0,44.969c2.65,0,5.04,0,7.433,0
		c0-15.03,0-29.873,0-44.969c4.677,0.272,9.061,0.527,13.483,0.784c0-2.106,0-3.957,0-5.766c-11.637,0-23.064,0-34.492,0
		C102.501,102.084,102.501,103.869,102.501,105.842z"/>
	<path fill="#FFFFFF" d="M185.852,150.067c2.559,0,4.968,0,7.464,0c0-16.966,0-33.788,0-50.574c-2.671,0-5.055,0-7.464,0
		C185.852,116.391,185.852,133.115,185.852,150.067z"/>
	<path fill="#FFFFFF" d="M133.416,67.853c-0.012-0.01-0.024-0.02-0.036-0.03c0,0.03,0,0.059,0,0.089L133.416,67.853z"/>
	<path fill="#FFFFFF" d="M133.481,67.912C133.481,67.912,133.481,67.912,133.481,67.912c0.014,0.012,0.022,0.02,0.032,0.029
		C133.504,67.932,133.499,67.928,133.481,67.912z"/>
	<path fill="#FFFFFF" d="M133.481,67.912c-0.02-0.018-0.043-0.038-0.066-0.059l-0.036,0.059
		C133.416,67.912,133.451,67.912,133.481,67.912z"/>
	<path fill="#FFFFFF" d="M133.514,67.941C133.551,67.975,133.546,67.97,133.514,67.941L133.514,67.941z"/>
</g>
<g>
	<path fill="#FFFFFF" d="M31.846,164.493h-0.066l-8.699,19.423l-8.666-19.423h-0.066l-4.267,18.674H8.559l5.359-23.313l9.163,20.53
		l9.196-20.53l5.359,23.313h-1.522L31.846,164.493z"/>
	<path fill="#FFFFFF" d="M43.566,174.394c-0.125,4.42,3.257,7.367,7.726,7.367c3.007,0,5.429-1.625,6.807-3.967l1.587,0.831
		c-1.754,3.023-4.844,4.723-8.644,4.723c-5.721,0-9.354-4.194-9.354-9.144c0-4.874,3.717-9.068,9.354-9.068
		c5.846,0,9.313,4.232,9.271,9.257H43.566z M58.433,172.808c-0.459-3.212-3.383-6.083-7.35-6.083c-3.925,0-7.183,2.796-7.517,6.083
		H58.433z"/>
	<path fill="#FFFFFF" d="M68.692,165.324v20.516c0.042,3.59-0.919,6.385-5.513,6.385c-1.42,0-2.464-0.302-3.717-0.907l0.585-1.587
		c0.961,0.492,2.046,0.756,3.132,0.756c3.174,0,3.508-2.116,3.508-4.647v-20.516H68.692z M65.706,158.223
		c0,1.965,3.299,1.965,3.299,0C69.005,156.259,65.706,156.259,65.706,158.223z"/>
	<path fill="#FFFFFF" d="M94.111,174.243c0,5.176-4.376,9.106-9.937,9.106c-5.439,0-9.814-4.118-9.814-9.068
		c0-5.025,4.334-9.144,9.814-9.144C89.736,165.138,94.111,169.067,94.111,174.243z M76.2,174.281c0,3.967,3.394,7.481,7.851,7.481
		c4.621,0,8.22-3.249,8.22-7.481c0-4.307-3.558-7.557-8.22-7.557C79.554,166.724,76.2,170.238,76.2,174.281z"/>
	<path fill="#FFFFFF" d="M100.288,167.972h0.084c0.752-1.587,2.13-2.645,4.176-2.645c0.752,0,1.378,0.151,2.046,0.416l-1.002,1.511
		c-0.459-0.227-0.835-0.34-1.336-0.34c-4.218,0-3.967,4.761-3.967,7.33v8.917h-1.879v-17.456h1.879V167.972z"/>
	<path fill="#FFFFFF" d="M129.531,182.971h-1.879v-3.136h-0.084c-1.42,2.229-4.51,3.514-7.35,3.514
		c-5.846,0-9.521-4.118-9.521-9.219c0-5.101,3.633-8.993,9.438-8.993c2.965,0,5.805,1.209,7.433,3.401h0.084v-3.023h1.879V182.971z
		 M112.576,174.13c0,4.005,2.924,7.632,7.601,7.632c4.928,0,7.601-3.627,7.601-7.821c0-4.043-3.049-7.217-7.726-7.217
		C115.624,166.724,112.576,170.352,112.576,174.13z"/>
	<path fill="#FFFFFF" d="M150.341,167.456h0.096c0.999-1.748,3.188-2.765,5.519-2.765c2.807,0,5.043,1.22,6.185,3.416
		c1.19-2.236,3.616-3.416,6.423-3.416c5.662,0,6.804,3.293,6.804,7.4v11.792h-2.141v-12.036c0-2.887-0.524-5.449-4.711-5.449
		c-4.567,0-5.662,3.416-5.662,6.669v10.816h-2.141v-11.588c0-2.927-0.619-5.896-4.901-5.896c-4.615,0-5.472,4.107-5.472,7.157
		v10.328H148.2v-18.785h2.141V167.456z"/>
	<path fill="#FFFFFF" d="M184.822,159.812c0,0.88-0.761,1.569-1.734,1.569c-0.973,0-1.735-0.689-1.735-1.569
		c0-0.842,0.761-1.569,1.735-1.569C184.06,158.243,184.822,158.97,184.822,159.812z M184.018,183.389h-1.904v-17.682h1.904V183.389z
		"/>
	<path fill="#FFFFFF" d="M208.93,180.288l6.938-14.582h1.946l-8.926,18.639l-8.969-18.639h1.946L208.93,180.288z"/>
	<path fill="#FFFFFF" d="M225.625,159.812c0,0.88-0.761,1.569-1.734,1.569c-0.973,0-1.735-0.689-1.735-1.569
		c0-0.842,0.761-1.569,1.735-1.569C224.863,158.243,225.625,158.97,225.625,159.812z M224.821,183.389h-1.904v-17.682h1.904V183.389
		z"/>
	<path fill="#FFFFFF" d="M247.891,180.212h-0.084c-1.438,2.258-4.569,3.559-7.445,3.559c-5.922,0-9.646-4.172-9.646-9.339
		c0-5.167,3.681-9.109,9.561-9.109c3.004,0,5.881,1.225,7.53,3.445h0.084v-16.955h1.904v31.576h-1.904V180.212z M248.018,174.241
		c0-4.096-3.088-7.311-7.826-7.311c-4.484,0-7.572,3.675-7.572,7.502c0,4.057,2.961,7.731,7.699,7.731
		C245.311,182.164,248.018,178.49,248.018,174.241z"/>
	<path fill="#FFFFFF" d="M274.531,183.389h-1.904v-3.177h-0.084c-1.438,2.258-4.569,3.559-7.445,3.559
		c-5.922,0-9.646-4.172-9.646-9.339c0-5.167,3.681-9.109,9.561-9.109c3.004,0,5.88,1.225,7.53,3.445h0.084v-3.062h1.904V183.389z
		 M257.356,174.433c0,4.057,2.961,7.731,7.699,7.731c4.992,0,7.699-3.674,7.699-7.922c0-4.096-3.088-7.311-7.826-7.311
		C260.444,166.931,257.356,170.605,257.356,174.433z"/>
</g>
<g>
	<path fill="#FFFFFF" d="M292.189,90.82c0,4.136-2.694,7.624-7.541,7.624c-4.825,0-7.539-3.488-7.539-7.624
		c0-4.157,2.714-7.624,7.539-7.624C289.495,83.196,292.189,86.663,292.189,90.82z M284.647,97.504c4.136,0,6.497-2.966,6.497-6.684
		c0-3.738-2.361-6.704-6.497-6.704c-4.134,0-6.475,2.966-6.475,6.704C278.173,94.538,280.513,97.504,284.647,97.504z
		 M285.421,86.705h-3.551v8h0.981v-3.008h1.733l2.612,3.008h1.085v-0.168l-2.505-2.84C288.95,91.3,288.826,86.705,285.421,86.705z
		 M282.852,87.666h2.57c2.255,0,2.214,3.154-0.063,3.154h-2.507V87.666z"/>
</g>
</svg>
