<?xml version="1.0" encoding="utf-8"?>
<!-- Generator: Adobe Illustrator 17.0.0, SVG Export Plug-In . SVG Version: 6.00 Build 0)  -->
<!DOCTYPE svg PUBLIC "-//W3C//DTD SVG 1.0//EN" "http://www.w3.org/TR/2001/REC-SVG-20010904/DTD/svg10.dtd">
<svg version="1.0" id="Layer_1" xmlns="http://www.w3.org/2000/svg" xmlns:xlink="http://www.w3.org/1999/xlink" x="0px" y="0px"
	 width="10px" height="10px" viewBox="0 0 10 10" enable-background="new 0 0 10 10" xml:space="preserve">
<path fill="#FFFFFF" d="M8.904,4.623h-0.05L7.598,4.626L7.537,4.627C7.345,4.642,7.192,4.804,7.193,5.001
	c0,0.207,0.168,0.375,0.375,0.375h1.345C9.106,5.36,9.258,5.197,9.258,5C9.257,4.8,9.102,4.636,8.904,4.623 M7.084,3.456
	L7.084,3.456l0.904-0.902l0.048-0.048c0.125-0.148,0.116-0.37-0.023-0.51C7.87,1.855,7.644,1.849,7.495,1.98L7.461,2.015
	l-0.886,0.89L6.532,2.948C6.407,3.095,6.413,3.317,6.553,3.456C6.699,3.603,6.937,3.603,7.084,3.456 M5.006,0.753
	c-0.201,0-0.365,0.156-0.378,0.353l0,0.05L4.632,2.41v0.061C4.648,2.664,4.81,2.816,5.007,2.816c0.208,0,0.376-0.168,0.376-0.375
	V2.439l0.001-1.274V1.097C5.366,0.904,5.203,0.753,5.006,0.753 M3.459,2.923L2.557,2.022L2.509,1.974
	C2.361,1.85,2.138,1.857,1.999,1.997C1.857,2.138,1.851,2.365,1.982,2.513l0.035,0.035l0.891,0.884l0.043,0.043
	c0.148,0.126,0.37,0.118,0.509-0.021c0.147-0.147,0.147-0.384,0-0.53L3.459,2.923z M2.473,5.373
	c0.193-0.015,0.345-0.177,0.345-0.374c0-0.208-0.168-0.375-0.375-0.375H1.098C0.905,4.64,0.753,4.803,0.754,5
	c0,0.201,0.156,0.364,0.354,0.377h0.05l1.256-0.004L2.473,5.373L2.473,5.373z M2.927,6.543L2.926,6.544L2.024,7.446L1.976,7.493
	c-0.124,0.148-0.117,0.371,0.023,0.51C2.141,8.145,2.367,8.15,2.516,8.02l0.035-0.035l0.886-0.89l0.043-0.043
	c0.125-0.147,0.119-0.37-0.021-0.508C3.311,6.397,3.074,6.397,2.927,6.543 M5.379,7.529C5.363,7.336,5.201,7.184,5.004,7.184
	c-0.208,0-0.376,0.168-0.376,0.375v0.002L4.628,8.835l0,0.068c0.017,0.193,0.179,0.344,0.377,0.344c0.201,0,0.364-0.156,0.377-0.353
	v-0.05L5.379,7.59V7.529z M7.994,7.452L7.103,6.568L7.06,6.525C6.912,6.399,6.69,6.406,6.551,6.546c-0.147,0.146-0.147,0.384,0,0.53
	l0.001,0.001l0.902,0.901l0.048,0.047c0.149,0.125,0.371,0.117,0.51-0.022c0.142-0.142,0.147-0.369,0.017-0.517L7.994,7.452z"/>
<rect x="0.754" y="0.753" fill="none" width="8.504" height="8.495"/>
</svg>
